<svg width="40" height="40" viewBox="0 0 40 40" fill="none" xmlns="http://www.w3.org/2000/svg">
<path d="M12.5 33.125C12.1685 33.125 11.8505 33.2567 11.6161 33.4911C11.3817 33.7255 11.25 34.0435 11.25 34.375H13.75C13.75 34.0435 13.6183 33.7255 13.3839 33.4911C13.1495 33.2567 12.8315 33.125 12.5 33.125Z" fill="#808080"/>
<path d="M15 30.625C14.6685 30.625 14.3505 30.7567 14.1161 30.9911C13.8817 31.2255 13.75 31.5435 13.75 31.875H16.25C16.25 31.5435 16.1183 31.2255 15.8839 30.9911C15.6495 30.7567 15.3315 30.625 15 30.625Z" fill="#808080"/>
<path d="M25 30.625C24.6685 30.625 24.3505 30.7567 24.1161 30.9911C23.8817 31.2255 23.75 31.5435 23.75 31.875H26.25C26.25 31.5435 26.1183 31.2255 25.8839 30.9911C25.6495 30.7567 25.3315 30.625 25 30.625Z" fill="#808080"/>
<path d="M5 38.75H35C35 34.7718 33.4196 30.9564 30.6066 28.1434C27.7936 25.3304 23.9782 23.75 20 23.75C16.0218 23.75 12.2064 25.3304 9.3934 28.1434C6.58035 30.9564 5 34.7718 5 38.75ZM18.125 34.3472C18.125 34.5971 18.0758 34.8445 17.9802 35.0754C17.8845 35.3062 17.7444 35.516 17.5677 35.6927C17.391 35.8694 17.1813 36.0095 16.9504 36.1052C16.7195 36.2008 16.4721 36.25 16.2222 36.25H10.6397C10.1579 36.2537 9.69315 36.0719 9.34175 35.7423C8.99034 35.4127 8.77922 34.9605 8.75214 34.4794C8.73798 34.141 8.79277 33.8032 8.91317 33.4865C9.03356 33.1698 9.21706 32.881 9.45252 32.6374C9.68798 32.3938 9.97048 32.2007 10.2829 32.0696C10.5953 31.9386 10.931 31.8724 11.2698 31.8751C11.2672 31.5477 11.3294 31.2229 11.4529 30.9197C11.5764 30.6166 11.7587 30.3408 11.9893 30.1084C12.2198 29.876 12.4941 29.6916 12.7963 29.5657C13.0985 29.4398 13.4226 29.375 13.75 29.375V29.1863C13.7383 28.6109 13.9455 28.0525 14.3298 27.624C14.714 27.1956 15.2466 26.9289 15.8199 26.8781C16.1166 26.8621 16.4135 26.9068 16.6924 27.0094C16.9713 27.1119 17.2264 27.2702 17.4421 27.4746C17.6578 27.6791 17.8296 27.9253 17.947 28.1983C18.0644 28.4713 18.125 28.7653 18.125 29.0625V34.3472ZM21.875 29.0625C21.875 28.7653 21.9356 28.4713 22.053 28.1983C22.1704 27.9253 22.3422 27.6791 22.5579 27.4746C22.7736 27.2702 23.0287 27.1119 23.3076 27.0094C23.5865 26.9068 23.8834 26.8621 24.1801 26.8781C24.7534 26.9289 25.286 27.1956 25.6702 27.624C26.0545 28.0525 26.2617 28.6109 26.25 29.1863V29.375C26.5774 29.375 26.9015 29.4398 27.2037 29.5657C27.5059 29.6916 27.7802 29.876 28.0107 30.1084C28.2413 30.3408 28.4236 30.6166 28.5471 30.9197C28.6706 31.2229 28.7328 31.5476 28.7302 31.8749C29.069 31.8722 29.4047 31.9386 29.7171 32.0696C30.0295 32.2007 30.312 32.3938 30.5475 32.6374C30.7829 32.881 30.9664 33.1699 31.0868 33.4865C31.2072 33.8032 31.262 34.141 31.2479 34.4795C31.2208 34.9605 31.0097 35.4127 30.6583 35.7423C30.3068 36.0719 29.8421 36.2537 29.3603 36.25H23.7778C23.5279 36.25 23.2805 36.2008 23.0496 36.1052C22.8187 36.0095 22.609 35.8694 22.4323 35.6927C22.2556 35.516 22.1155 35.3062 22.0198 35.0754C21.9242 34.8445 21.875 34.5971 21.875 34.3472V29.0625Z" fill="#808080"/>
<path d="M28.75 35C28.75 34.6685 28.6183 34.3505 28.3839 34.1161C28.1495 33.8817 27.8315 33.75 27.5 33.75C27.1685 33.75 26.8505 33.8817 26.6161 34.1161C26.3817 34.3505 26.25 34.6685 26.25 35H28.75Z" fill="#808080"/>
<path d="M4.375 2.5C4.87228 2.5 5.34919 2.69754 5.70083 3.04917C6.05246 3.4008 6.25 3.87772 6.25 4.375C6.25 4.87228 6.05246 5.34919 5.70083 5.70082C5.34919 6.05245 4.87228 6.25 4.375 6.25C4.20924 6.25 4.05027 6.31585 3.93306 6.43306C3.81585 6.55027 3.75 6.70924 3.75 6.875V10H5V7.43713C5.57938 7.31889 6.11332 7.0387 6.53981 6.62911C6.9663 6.21952 7.26783 5.69733 7.40938 5.12321C7.55093 4.54908 7.52668 3.94657 7.33947 3.38567C7.15225 2.82478 6.80974 2.3285 6.35172 1.9545C5.8937 1.5805 5.33898 1.34411 4.75197 1.27281C4.16497 1.2015 3.56978 1.2982 3.03554 1.55167C2.5013 1.80514 2.04993 2.20497 1.73387 2.70474C1.41781 3.2045 1.25002 3.78368 1.25 4.375H2.5C2.50054 3.87788 2.69826 3.40128 3.04977 3.04977C3.40129 2.69826 3.87789 2.50054 4.375 2.5Z" fill="#808080"/>
<path d="M5 11.25H3.75V12.5H5V11.25Z" fill="#808080"/>
<path d="M31.875 10.625L25.625 8.125V16.875L31.875 19.375V10.625Z" fill="#808080"/>
<path d="M32.5 19.375L38.75 16.875V8.125L32.5 10.625V19.375Z" fill="#808080"/>
<path d="M4.19582 22.1198C4.44675 22.4334 4.76502 22.6866 5.12706 22.8606C5.48911 23.0347 5.88565 23.125 6.28734 23.125H13.125V15.625H5V20H2.5L4.19582 22.1198ZM11.25 20.9375H9.375V20.3125H11.25V20.9375ZM6.875 17.8125H11.25V18.4375H6.875V17.8125ZM6.875 20.3125H8.125V20.9375H6.875V20.3125Z" fill="#808080"/>
<path d="M18.7499 2.5C17.8098 2.49951 16.9039 2.85231 16.2118 3.48845C15.5196 4.12458 15.0918 4.99759 15.0131 5.93436C14.9345 6.87114 15.2107 7.80326 15.7871 8.54591C16.3635 9.28855 17.1979 9.78748 18.1249 9.94375V15H19.3749V9.94375C20.3019 9.78748 21.1363 9.28855 21.7127 8.54591C22.2891 7.80326 22.5653 6.87114 22.4867 5.93436C22.408 4.99759 21.9802 4.12458 21.2881 3.48845C20.5959 2.85231 19.69 2.49951 18.7499 2.5ZM18.7499 4.6875C18.3357 4.68799 17.9385 4.85276 17.6456 5.14568C17.3527 5.4386 17.1879 5.83575 17.1874 6.25H16.5624C16.5631 5.67005 16.7938 5.11406 17.2039 4.70398C17.614 4.2939 18.17 4.0632 18.7499 4.0625V4.6875Z" fill="#808080"/>
</svg>
