<svg width="708" height="520" viewBox="0 0 708 520" fill="none" xmlns="http://www.w3.org/2000/svg">
<path fill-rule="evenodd" clip-rule="evenodd" d="M340.338 7.784C334.377 12.066 315.775 25.48 299 37.593C282.225 49.706 263.474 63.19 257.332 67.558C239.715 80.085 205.324 104.744 196 111.533C191.325 114.938 171.75 128.884 152.5 142.525C133.25 156.167 114.8 169.302 111.5 171.714C108.2 174.127 96.05 182.87 84.5 191.145C72.95 199.419 62.825 206.853 62 207.665C60.672 208.972 63.4 211.989 85.838 234.023L111.177 258.905L120.338 252.131C136.176 240.422 153.728 228.042 155.402 227.399C156.875 226.834 156.991 233.165 156.756 301.641L156.5 376.5L125.25 376.764L94 377.028V389.014V401H352.5H611V389V377H580H549V301.5C549 259.975 549.243 226 549.54 226C549.836 226 560.038 233.455 572.21 242.567L594.341 259.135L608.92 244.773C616.939 236.873 628.337 225.729 634.25 220.009C640.162 214.288 644.983 209.133 644.962 208.553C644.941 207.974 642.354 205.736 639.212 203.581C636.07 201.425 628.1 195.754 621.5 190.979C614.9 186.204 594.425 171.574 576 158.468C557.575 145.362 539.462 132.37 535.75 129.596L529 124.552V99.776V75H533H537V61V47H492.5H448V57C448 62.5 447.751 67 447.447 67C447.142 67 443.653 64.604 439.692 61.674C431.075 55.302 395.284 29.782 378.5 18.043C371.9 13.427 363.52 7.479 359.878 4.825C356.235 2.171 352.787 0 352.216 0C351.644 0 346.299 3.503 340.338 7.784ZM368.5 42.857C375.1 47.557 385.45 55.006 391.5 59.411C397.55 63.816 410.6 73.152 420.5 80.157C430.4 87.163 440.3 94.197 442.5 95.788C446.318 98.549 475.765 119.556 503.458 139.274C510.585 144.348 519.81 151 523.958 154.055C528.106 157.111 539.375 165.188 549 172.005C558.625 178.821 571.768 188.342 578.207 193.161C584.646 197.98 592.409 203.579 595.457 205.603C598.506 207.627 601 209.568 601 209.917C601 210.265 597.683 213.845 593.629 217.872L586.258 225.194L573.982 216.347C547.013 196.911 503.852 166.051 492.996 158.443C486.673 154.011 478.35 148.108 474.5 145.325C464.836 138.337 401.272 92.871 391.645 86.058C387.325 83.001 376.75 75.497 368.146 69.382L352.502 58.264L347.001 62.014C341.528 65.746 330.701 73.502 289.894 102.926C278.127 111.41 264.675 121.026 260 124.294C255.325 127.562 249.7 131.683 247.5 133.45C245.3 135.218 239.225 139.514 234 142.997C228.775 146.481 222.025 151.216 219 153.52C213.152 157.975 131.873 216.27 123.603 221.941L118.705 225.299L111.853 218.268C108.084 214.401 105 210.752 105 210.16C105 209.567 112.763 203.588 122.25 196.872C131.738 190.156 142.65 182.405 146.5 179.647C150.35 176.89 158.675 170.961 165 166.473C171.325 161.985 181.725 154.53 188.111 149.906C194.497 145.283 205.747 137.18 213.111 131.899C220.475 126.619 232.575 117.942 240 112.618C247.425 107.294 266.1 93.877 281.5 82.802C352.138 32.003 352.136 32.004 354.48 33.244C355.591 33.832 361.9 38.158 368.5 42.857ZM504 90C504 102.952 503.737 106 502.617 106C501.857 106 494.953 101.382 487.277 95.738C479.6 90.094 471.675 84.356 469.666 82.988C467.053 81.208 466.012 79.765 466.007 77.917C466.003 76.496 466.3 75.033 466.667 74.667C467.033 74.3 475.583 74 485.667 74H504V90ZM362.835 95.986C373.654 103.805 390.93 116.185 417.982 135.5C427.995 142.65 438.958 150.535 442.344 153.023L448.5 157.546L448.754 267.278L449.009 377.01L352.754 376.755L256.5 376.5L256.466 267.14L256.431 157.78L260.466 154.538C262.685 152.755 278 141.696 294.5 129.964C311 118.231 330.551 104.215 337.946 98.816C345.342 93.417 351.792 89 352.281 89C352.77 89 357.52 92.144 362.835 95.986ZM329.427 121.278C317.286 130.2 300.861 142.176 292.927 147.892C270.78 163.844 270.089 164.384 269.469 166.212C268.608 168.756 270.756 172.003 273.285 171.98C274.503 171.969 278.752 169.607 282.726 166.73C286.701 163.854 296.058 157.225 303.52 152C310.983 146.775 322.218 138.675 328.487 134C345.14 121.582 350.89 117.531 352.271 117.246C352.947 117.106 360.025 121.802 368 127.682C394.77 147.417 401.4 152 403.182 152C405.332 152 408.433 147.571 407.672 145.587C407.37 144.801 404.283 142.239 400.812 139.893C397.34 137.546 387.525 130.39 379 123.99C362.199 111.377 353.142 104.984 352.138 105.028C351.787 105.044 341.567 112.356 329.427 121.278ZM415.655 154.829C414.745 155.835 414 157.395 414 158.297C414 159.861 419.382 164.294 428.869 170.545L433.239 173.424L435.119 171.101C437.525 168.13 437.493 167.739 434.555 164.247C431.857 161.041 420.378 153 418.499 153C417.845 153 416.565 153.823 415.655 154.829ZM230.755 276.25L230.5 376.5H221.5H212.5L212 307.669C211.516 240.993 211.439 238.794 209.559 237.419C207.167 235.671 205.88 235.636 203.658 237.261C202.058 238.431 201.918 243.5 201.717 307.511L201.5 376.5H193.5H185.5L185.244 292.363L184.989 208.226L207.244 192.158C219.485 183.321 229.84 176.07 230.255 176.045C230.67 176.02 230.895 221.112 230.755 276.25ZM505 197.233C510.775 201.506 516.74 206.078 518.256 207.392L521.012 209.78L520.756 293.14L520.5 376.5L512.25 376.79L504 377.081V319.059V261.038L501.5 260.411C500.125 260.066 497.879 260.065 496.508 260.409L494.016 261.034L493.758 318.767L493.5 376.5L484.327 376.787L475.153 377.073L474.441 371.371C473.926 367.252 474.397 178.378 474.927 176.201C475.032 175.773 492.673 188.11 505 197.233ZM485.571 202.571C484.707 203.436 484 205.426 484 206.994C484 209.468 485.259 210.717 493.5 216.423C498.724 220.04 503.809 223 504.8 223C509.504 223 510.429 217.266 506.25 214.008C499.422 208.685 488.579 201 487.896 201C487.482 201 486.436 201.707 485.571 202.571ZM205.5 209.246C200.465 213.341 196.37 217.456 196.206 218.587C196.044 219.7 196.823 221.435 197.937 222.443C199.92 224.238 200.128 224.168 207.803 219.129C212.115 216.299 216.952 212.616 218.551 210.946C221.319 208.057 221.387 207.779 219.947 205.205C217.441 200.726 215.21 201.35 205.5 209.246ZM298 244.892V270.783L300.25 271.331C303.264 272.064 343.598 272.091 345.501 271.361C346.78 270.871 347 266.977 347 244.893V219H322.5H298V244.892ZM359.667 219.667C359.3 220.033 359 231.682 359 245.553V270.773L380.244 271.157C391.929 271.369 402.954 271.37 404.744 271.161L408 270.781V244.891V219H384.167C371.058 219 360.033 219.3 359.667 219.667ZM495 239C492.593 241.407 492.499 242.84 494.557 245.777C496.272 248.226 500.811 248.789 502.8 246.8C503.46 246.14 504 244.205 504 242.5C504 240.795 503.46 238.86 502.8 238.2C500.979 236.379 497.237 236.763 495 239ZM298 309.407V334.813L307.25 335.471C312.337 335.832 323.25 335.987 331.5 335.814L346.5 335.5L346.767 309.75L347.034 284H322.517H298V309.407ZM359 309.437V334.909L362.25 335.497C364.038 335.82 374.95 335.953 386.5 335.792L407.5 335.5V310V284.5L383.25 284.232L359 283.964V309.437ZM665.539 437.25C666.653 442.439 667.893 444.048 672.331 446.063C683.034 450.923 697 445.748 697 436.923C697 434.125 696.807 434 692.5 434C689.397 434 688 434.418 688 435.345C688 438.007 684.345 440.145 680.355 439.816C677.308 439.565 676.243 438.932 675.203 436.75C674.057 434.348 673.318 434 669.366 434H664.841L665.539 437.25ZM445.5 437.618C432.394 440.964 425.649 445.905 420.834 455.686C417.862 461.723 417.508 463.329 417.573 470.479C417.662 480.268 419.859 485.797 426.466 492.86C433.477 500.355 439.147 502.494 452 502.488C463.606 502.484 468.84 500.754 475.187 494.825L478.325 491.894L473.412 487.567L468.5 483.24L465.329 486.02C461.245 489.6 453.956 491.227 447.998 489.888C437.59 487.55 432.481 480.886 432.563 469.756C432.605 463.956 433.026 462.417 435.569 458.756C442.087 449.376 455.13 447.182 464.62 453.871L469.271 457.15L473.704 452.825L478.137 448.5L474.032 444.831C471.774 442.814 467.805 440.427 465.213 439.528C460.315 437.829 448.975 436.73 445.5 437.618ZM0 470V502H6.969H13.938L14.219 489.75L14.5 477.5L19.618 477.202L24.735 476.905L32.89 489.452L41.045 502H49.487H57.928L47.399 485.892C41.607 477.032 37.101 469.179 37.385 468.44C37.668 467.701 41.891 461.112 46.768 453.798C51.645 446.484 55.969 439.938 56.377 439.25C56.943 438.295 55.331 438 49.538 438H41.958L33.5 451L25.042 464H19.521H14V451V438H7H0V470ZM79.326 453.003C73.238 454.267 69.723 456.372 65.291 461.407C54.653 473.492 57.762 491.654 71.773 499.28C85.609 506.81 103.252 501.904 110.293 488.568C113.3 482.872 113.294 472.116 110.279 466.405C107.749 461.612 102.328 456.582 97.534 454.579C92.986 452.678 84.448 451.939 79.326 453.003ZM267.135 452.952C265.284 453.416 262.471 454.754 260.885 455.927L258 458.06V455.53C258 453.064 257.822 453 251 453H244V486.5V520H251H258V509C258 502.95 258.199 498 258.443 498C258.686 498 260.599 499.013 262.693 500.25C265.676 502.013 268.033 502.5 273.578 502.5C279.712 502.5 281.31 502.096 285.552 499.474C292.806 494.989 296.378 488.649 296.843 479.431C297.05 475.329 296.677 470.55 295.984 468.453C294.446 463.793 288.773 457.435 283.963 454.981C279.555 452.732 271.765 451.793 267.135 452.952ZM557.135 452.952C555.284 453.416 552.522 454.717 550.998 455.844C548.037 458.033 547 457.771 547 454.833C547 453.244 546.136 453 540.5 453H534V486.5V520H541H548V509C548 502.95 548.302 498 548.671 498C549.04 498 550.099 498.685 551.024 499.522C551.949 500.359 555.248 501.577 558.355 502.229C568.435 504.343 578.555 500.029 583.563 491.483C586.809 485.944 587.893 476.261 586.017 469.561C584.498 464.136 579.127 457.615 574.038 455.019C569.563 452.736 561.793 451.786 557.135 452.952ZM614 452.895C598.709 456.161 590.061 470.38 594.364 485.181C597.596 496.297 610.096 503.992 622.792 502.682C629.694 501.97 638.292 497.795 641.489 493.604C646.577 486.932 648.233 477.846 645.824 469.807C644.28 464.655 638.048 457.676 632.739 455.155C627.893 452.854 619.137 451.798 614 452.895ZM122.625 456.125C122.281 457.844 122 468.869 122 480.625V502H129.5H137V493V484H147.5H158V493V502H165H172V477.5V453H165H158V462.5V472H147.5H137V462.5V453H130.125H123.25L122.625 456.125ZM186 477.5V502H193H200V493V484H203.832C207.53 484 207.883 484.316 213.891 493L220.117 502H228.677H237.237L234.814 498.75C231.363 494.122 220.45 478.708 219.703 477.407C219.358 476.806 222.841 471.181 227.443 464.907L235.811 453.5L229.255 453.201C225.649 453.036 222.138 453.117 221.453 453.38C220.768 453.643 217.412 457.94 213.994 462.929C207.961 471.738 207.669 472 203.891 472H200V462.5V453H193H186V477.5ZM307 477.5V502H313.791H320.582L332.041 487.903L343.5 473.805L343.777 487.903L344.055 502H351.027H358V477.5V453H351.626H345.252L333.876 466.994C327.619 474.69 322.163 480.99 321.75 480.994C321.337 480.997 321 474.7 321 467V453H314H307V477.5ZM366 459V465H374H382V483.5V502H389.5H397V483.5V465H405H413V459V453H389.5H366V459ZM479 459V465H487.5H496V483.5V502H503H510V483.5V465H518H526V459V453H502.5H479V459ZM657 477.5V502H663.453H669.906L681.361 488.041C689.424 478.217 692.993 474.538 693.409 475.623C693.734 476.47 694 482.752 694 489.582V502H701H708V477.5V453L701.25 453.047L694.5 453.094L683 467.277L671.5 481.461L671.223 467.23L670.945 453H663.973H657V477.5ZM94.749 468.424C97.522 471.449 98 472.715 98 477.035C98 483.184 95.952 487.456 92.033 489.483C82.415 494.456 72.016 486.554 73.66 475.522C74.825 467.707 79.976 463.576 87.499 464.425C90.474 464.761 92.332 465.786 94.749 468.424ZM277.102 466.283C284.141 471.011 284.767 481.433 278.396 487.804C275.179 491.021 274.615 491.217 269.882 490.763C263.173 490.118 259.001 486.189 258.286 479.841C256.948 467.977 267.889 460.093 277.102 466.283ZM567.102 466.283C576.946 472.896 573.418 489.41 561.883 490.71C552.934 491.718 547.306 485.578 548.243 475.827C549.209 465.772 558.981 460.827 567.102 466.283ZM625.466 465.421C629.768 467.219 632.201 471.829 632.153 478.092C632.107 483.981 630.843 486.515 626.686 489.05C620.694 492.704 612.491 490.784 609.517 485.033C608.683 483.419 608 479.861 608 477.126C608 473.197 608.56 471.488 610.668 468.982C614.92 463.93 619.347 462.865 625.466 465.421Z" fill="#F1EFED"/>
</svg>
